<?xml version="1.0" standalone="no"?>
<!DOCTYPE svg PUBLIC "-//W3C//DTD SVG 20010904//EN"
 "http://www.w3.org/TR/2001/REC-SVG-20010904/DTD/svg10.dtd">
<svg version="1.0" xmlns="http://www.w3.org/2000/svg"
 width="640.000000pt" height="427.000000pt" viewBox="0 0 640.000000 427.000000"
 preserveAspectRatio="xMidYMid meet">

<g transform="translate(0.000000,427.000000) scale(0.100000,-0.100000)"
fill="#000000" stroke="none">
<path d="M0 3915 l0 -355 3200 0 3200 0 0 355 0 355 -3200 0 -3200 0 0 -355z"/>
<path d="M3100 3144 c-66 -18 -137 -62 -184 -115 -46 -50 -50 -111 -12 -152
49 -53 102 -48 175 17 79 70 173 72 238 4 55 -57 69 -132 35 -198 l-17 -35
-120 -1 c-66 0 -142 -7 -170 -13 -338 -85 -563 -346 -584 -676 l-6 -100 -58
-7 c-197 -25 -338 -199 -325 -403 11 -165 135 -311 295 -345 69 -15 118 4 139
56 26 63 -8 126 -80 145 -99 26 -153 97 -144 189 9 90 75 150 167 150 l50 0
40 -77 c78 -150 186 -255 336 -328 125 -61 218 -79 364 -72 132 6 203 25 320
88 l73 39 63 -59 c83 -77 150 -104 260 -104 49 0 97 7 125 17 106 39 196 129
236 236 24 64 23 191 -2 255 -25 65 -74 93 -129 75 -68 -22 -87 -73 -63 -164
31 -115 -80 -234 -195 -211 -44 9 -99 47 -119 81 -16 29 -16 31 18 83 45 72
90 182 104 258 20 102 9 282 -24 378 -54 159 -155 292 -289 381 -39 27 -73 49
-75 50 -2 1 7 30 19 65 47 141 6 306 -101 402 -105 94 -230 126 -360 91z m219
-813 c83 -26 141 -62 194 -121 229 -255 91 -652 -247 -711 -131 -22 -274 26
-372 127 -63 64 -100 138 -116 232 -51 302 249 564 541 473z"/>
<path d="M0 350 l0 -350 3200 0 3200 0 0 350 0 350 -3200 0 -3200 0 0 -350z"/>
</g>
</svg>
